<svg width="62" height="16" viewBox="0 0 62 16" fill="none" xmlns="http://www.w3.org/2000/svg">
<path d="M0.0543325 15V0.454545H1.8157V13.4375H8.57706V15H0.0543325ZM15.5089 15.2273C14.524 15.2273 13.6599 14.9929 12.9165 14.5241C12.1779 14.0554 11.6003 13.3996 11.1836 12.5568C10.7717 11.714 10.5657 10.7292 10.5657 9.60227C10.5657 8.46591 10.7717 7.47396 11.1836 6.62642C11.6003 5.77888 12.1779 5.12074 12.9165 4.65199C13.6599 4.18324 14.524 3.94886 15.5089 3.94886C16.4937 3.94886 17.3555 4.18324 18.0941 4.65199C18.8375 5.12074 19.4151 5.77888 19.8271 6.62642C20.2437 7.47396 20.4521 8.46591 20.4521 9.60227C20.4521 10.7292 20.2437 11.714 19.8271 12.5568C19.4151 13.3996 18.8375 14.0554 18.0941 14.5241C17.3555 14.9929 16.4937 15.2273 15.5089 15.2273ZM15.5089 13.7216C16.257 13.7216 16.8725 13.5298 17.3555 13.1463C17.8384 12.7628 18.1959 12.2585 18.4279 11.6335C18.6599 11.0085 18.7759 10.3314 18.7759 9.60227C18.7759 8.87311 18.6599 8.19366 18.4279 7.56392C18.1959 6.93419 17.8384 6.42519 17.3555 6.03693C16.8725 5.64867 16.257 5.45455 15.5089 5.45455C14.7608 5.45455 14.1452 5.64867 13.6623 6.03693C13.1793 6.42519 12.8219 6.93419 12.5898 7.56392C12.3578 8.19366 12.2418 8.87311 12.2418 9.60227C12.2418 10.3314 12.3578 11.0085 12.5898 11.6335C12.8219 12.2585 13.1793 12.7628 13.6623 13.1463C14.1452 13.5298 14.7608 13.7216 15.5089 13.7216ZM27.4425 15.2273C26.4197 15.2273 25.5391 14.9858 24.8004 14.5028C24.0618 14.0199 23.4936 13.3546 23.0959 12.5071C22.6982 11.6596 22.4993 10.6913 22.4993 9.60227C22.4993 8.49432 22.7029 7.51657 23.1101 6.66903C23.522 5.81676 24.0949 5.15152 24.8288 4.6733C25.5675 4.19034 26.4292 3.94886 27.4141 3.94886C28.1811 3.94886 28.8724 4.09091 29.4879 4.375C30.1035 4.65909 30.6077 5.05682 31.0007 5.56818C31.3937 6.07955 31.6375 6.67614 31.7322 7.35795H30.0561C29.9283 6.8608 29.6442 6.42045 29.2038 6.03693C28.7682 5.64867 28.1811 5.45455 27.4425 5.45455C26.7891 5.45455 26.2161 5.625 25.7237 5.96591C25.236 6.30208 24.8549 6.77794 24.5803 7.39347C24.3104 8.00426 24.1754 8.72159 24.1754 9.54545C24.1754 10.3883 24.308 11.1222 24.5732 11.7472C24.843 12.3722 25.2218 12.8575 25.7095 13.2031C26.2019 13.5488 26.7796 13.7216 27.4425 13.7216C27.8781 13.7216 28.2734 13.6458 28.6286 13.4943C28.9837 13.3428 29.2843 13.125 29.5305 12.8409C29.7768 12.5568 29.9519 12.2159 30.0561 11.8182H31.7322C31.6375 12.4621 31.4032 13.0421 31.0291 13.5582C30.6598 14.0696 30.1697 14.4768 29.5589 14.7798C28.9529 15.0781 28.2474 15.2273 27.4425 15.2273ZM37.3928 15.2557C36.7015 15.2557 36.0741 15.1255 35.5107 14.8651C34.9472 14.5999 34.4998 14.2188 34.1683 13.7216C33.8369 13.2197 33.6712 12.6136 33.6712 11.9034C33.6712 11.2784 33.7943 10.7718 34.0405 10.3835C34.2867 9.99053 34.6158 9.68276 35.0277 9.46023C35.4396 9.23769 35.8942 9.07197 36.3913 8.96307C36.8932 8.84943 37.3975 8.75947 37.9041 8.69318C38.567 8.60795 39.1044 8.54403 39.5163 8.50142C39.933 8.45407 40.236 8.37595 40.4254 8.26705C40.6196 8.15814 40.7166 7.96875 40.7166 7.69886V7.64205C40.7166 6.94129 40.5249 6.39678 40.1413 6.00852C39.7625 5.62027 39.1873 5.42614 38.4155 5.42614C37.6153 5.42614 36.9879 5.60133 36.5334 5.9517C36.0788 6.30208 35.7592 6.67614 35.5746 7.07386L33.9837 6.50568C34.2678 5.8428 34.6465 5.3267 35.12 4.95739C35.5982 4.58333 36.1191 4.32292 36.6825 4.17614C37.2507 4.02462 37.8094 3.94886 38.3587 3.94886C38.709 3.94886 39.1115 3.99148 39.5661 4.0767C40.0253 4.1572 40.468 4.32528 40.8942 4.58097C41.325 4.83665 41.6825 5.22254 41.9666 5.73864C42.2507 6.25473 42.3928 6.94602 42.3928 7.8125V15H40.7166V13.5227H40.6314C40.5178 13.7595 40.3284 14.0128 40.0632 14.2827C39.7981 14.5526 39.4453 14.7822 39.005 14.9716C38.5646 15.161 38.0272 15.2557 37.3928 15.2557ZM37.6484 13.75C38.3113 13.75 38.87 13.6198 39.3246 13.3594C39.7839 13.099 40.1295 12.7628 40.3615 12.3509C40.5982 11.9389 40.7166 11.5057 40.7166 11.0511V9.51705C40.6456 9.60227 40.4893 9.6804 40.2479 9.75142C40.0111 9.81771 39.7365 9.87689 39.424 9.92898C39.1162 9.97633 38.8156 10.0189 38.522 10.0568C38.2332 10.09 37.9988 10.1184 37.8189 10.142C37.3833 10.1989 36.9761 10.2912 36.5973 10.419C36.2232 10.5421 35.9202 10.7292 35.6882 10.9801C35.4609 11.2263 35.3473 11.5625 35.3473 11.9886C35.3473 12.571 35.5627 13.0114 35.9936 13.3097C36.4292 13.6032 36.9808 13.75 37.6484 13.75ZM50.1964 4.09091V5.51136H44.543V4.09091H50.1964ZM46.1907 1.47727H47.8668V11.875C47.8668 12.3485 47.9355 12.7036 48.0728 12.9403C48.2148 13.1723 48.3948 13.3286 48.6126 13.4091C48.8351 13.4848 49.0695 13.5227 49.3157 13.5227C49.5004 13.5227 49.6519 13.5133 49.7702 13.4943C49.8886 13.4706 49.9833 13.4517 50.0543 13.4375L50.3952 14.9432C50.2816 14.9858 50.123 15.0284 49.9194 15.071C49.7158 15.1184 49.4577 15.142 49.1452 15.142C48.6718 15.142 48.2077 15.0402 47.7532 14.8366C47.3034 14.633 46.9293 14.3229 46.631 13.9062C46.3375 13.4896 46.1907 12.964 46.1907 12.3295V1.47727ZM57.1744 15.2273C56.1232 15.2273 55.2165 14.9953 54.4542 14.5312C53.6966 14.0625 53.1119 13.4091 52.6999 12.571C52.2927 11.7282 52.0891 10.7481 52.0891 9.63068C52.0891 8.51326 52.2927 7.52841 52.6999 6.67614C53.1119 5.81913 53.6848 5.15152 54.4187 4.6733C55.1573 4.19034 56.0191 3.94886 57.0039 3.94886C57.5721 3.94886 58.1332 4.04356 58.6871 4.23295C59.2411 4.42235 59.7454 4.73011 60.1999 5.15625C60.6545 5.57765 61.0167 6.13636 61.2866 6.83239C61.5565 7.52841 61.6914 8.38542 61.6914 9.40341V10.1136H53.2823V8.66477H59.9869C59.9869 8.04924 59.8638 7.5 59.6175 7.01705C59.3761 6.53409 59.0304 6.15294 58.5806 5.87358C58.1355 5.59422 57.61 5.45455 57.0039 5.45455C56.3363 5.45455 55.7586 5.62026 55.271 5.9517C54.788 6.27841 54.4163 6.70455 54.1559 7.23011C53.8955 7.75568 53.7653 8.31913 53.7653 8.92045V9.88636C53.7653 10.7102 53.9073 11.4086 54.1914 11.9815C54.4802 12.5497 54.8803 12.983 55.3917 13.2812C55.9031 13.5748 56.4973 13.7216 57.1744 13.7216C57.6147 13.7216 58.0124 13.66 58.3675 13.5369C58.7274 13.4091 59.0375 13.2197 59.2979 12.9688C59.5584 12.7131 59.7596 12.3958 59.9016 12.017L61.521 12.4716C61.3505 13.0208 61.064 13.5038 60.6616 13.9205C60.2591 14.3324 59.762 14.6544 59.1701 14.8864C58.5782 15.1136 57.913 15.2273 57.1744 15.2273Z" fill="#6B0808"/>
<path d="M0.0543325 15H-0.0456675V15.1H0.0543325V15ZM0.0543325 0.454545V0.354545H-0.0456675V0.454545H0.0543325ZM1.8157 0.454545H1.9157V0.354545H1.8157V0.454545ZM1.8157 13.4375H1.7157V13.5375H1.8157V13.4375ZM8.57706 13.4375H8.67706V13.3375H8.57706V13.4375ZM8.57706 15V15.1H8.67706V15H8.57706ZM0.154332 15V0.454545H-0.0456675V15H0.154332ZM0.0543325 0.554545H1.8157V0.354545H0.0543325V0.554545ZM1.7157 0.454545V13.4375H1.9157V0.454545H1.7157ZM1.8157 13.5375H8.57706V13.3375H1.8157V13.5375ZM8.47706 13.4375V15H8.67706V13.4375H8.47706ZM8.57706 14.9H0.0543325V15.1H8.57706V14.9ZM12.9165 14.5241L12.863 14.6086L12.8632 14.6087L12.9165 14.5241ZM11.1836 12.5568L11.0937 12.6007L11.094 12.6011L11.1836 12.5568ZM11.1836 6.62642L11.0939 6.5823L11.0937 6.58271L11.1836 6.62642ZM12.9165 4.65199L12.8632 4.5674L12.863 4.56756L12.9165 4.65199ZM18.0941 4.65199L18.0405 4.73642L18.0408 4.73658L18.0941 4.65199ZM19.8271 6.62642L19.7371 6.67013L19.7373 6.67054L19.8271 6.62642ZM19.8271 12.5568L19.7374 12.5125L19.7372 12.5129L19.8271 12.5568ZM18.0941 14.5241L18.0408 14.4396L18.0405 14.4397L18.0941 14.5241ZM17.3555 13.1463L17.2933 13.068L17.2933 13.068L17.3555 13.1463ZM18.4279 11.6335L18.5217 11.6683L18.5217 11.6683L18.4279 11.6335ZM18.4279 7.56392L18.5217 7.52935L18.5217 7.52935L18.4279 7.56392ZM17.3555 6.03693L17.4181 5.95899L17.4181 5.95899L17.3555 6.03693ZM13.6623 6.03693L13.5996 5.95899L13.5996 5.95899L13.6623 6.03693ZM12.5898 7.56392L12.496 7.52935L12.496 7.52935L12.5898 7.56392ZM12.5898 11.6335L12.4961 11.6683L12.4961 11.6683L12.5898 11.6335ZM13.6623 13.1463L13.7245 13.068L13.7245 13.068L13.6623 13.1463ZM15.5089 15.1273C14.5406 15.1273 13.6954 14.8971 12.9699 14.4396L12.8632 14.6087C13.6244 15.0887 14.5075 15.3273 15.5089 15.3273V15.1273ZM12.9701 14.4397C12.2481 13.9815 11.6824 13.3402 11.2732 12.5125L11.094 12.6011C11.5181 13.4591 12.1077 14.1293 12.863 14.6086L12.9701 14.4397ZM11.2734 12.5129C10.8694 11.6863 10.6657 10.717 10.6657 9.60227H10.4657C10.4657 10.7414 10.6739 11.7418 11.0938 12.6007L11.2734 12.5129ZM10.6657 9.60227C10.6657 8.47798 10.8694 7.50153 11.2735 6.67013L11.0937 6.58271C10.6739 7.44639 10.4657 8.45384 10.4657 9.60227H10.6657ZM11.2733 6.67054C11.6826 5.83815 12.2483 5.19453 12.9701 4.73642L12.863 4.56756C12.1076 5.04695 11.518 5.71962 11.0939 6.5823L11.2733 6.67054ZM12.9699 4.73658C13.6954 4.27908 14.5406 4.04886 15.5089 4.04886V3.84886C14.5075 3.84886 13.6244 4.0874 12.8632 4.5674L12.9699 4.73658ZM15.5089 4.04886C16.4772 4.04886 17.3199 4.27908 18.0405 4.73642L18.1477 4.56756C17.3911 4.0874 16.5102 3.84886 15.5089 3.84886V4.04886ZM18.0408 4.73658C18.7672 5.19466 19.3327 5.8381 19.7371 6.67013L19.917 6.58271C19.4975 5.71966 18.9077 5.04682 18.1474 4.5674L18.0408 4.73658ZM19.7373 6.67054C20.146 7.50184 20.3521 8.47814 20.3521 9.60227H20.5521C20.5521 8.45368 20.3415 7.44608 19.9168 6.5823L19.7373 6.67054ZM20.3521 9.60227C20.3521 10.7168 20.146 11.686 19.7374 12.5125L19.9167 12.6011C20.3414 11.7421 20.5521 10.7415 20.5521 9.60227H20.3521ZM19.7372 12.5129C19.3329 13.3402 18.7674 13.9814 18.0408 14.4396L18.1474 14.6087C18.9076 14.1294 19.4974 13.459 19.9169 12.6007L19.7372 12.5129ZM18.0405 14.4397C17.3199 14.8971 16.4772 15.1273 15.5089 15.1273V15.3273C16.5102 15.3273 17.3911 15.0887 18.1477 14.6086L18.0405 14.4397ZM15.5089 13.8216C16.2746 13.8216 16.9135 13.625 17.4177 13.2246L17.2933 13.068C16.8315 13.4347 16.2394 13.6216 15.5089 13.6216V13.8216ZM17.4177 13.2246C17.9161 12.8288 18.2838 12.309 18.5217 11.6683L18.3342 11.5987C18.108 12.208 17.7608 12.6967 17.2933 13.068L17.4177 13.2246ZM18.5217 11.6683C18.7582 11.0312 18.8759 10.3422 18.8759 9.60227H18.6759C18.6759 10.3207 18.5617 10.9859 18.3342 11.5987L18.5217 11.6683ZM18.8759 9.60227C18.8759 8.86233 18.7582 8.17107 18.5217 7.52935L18.3341 7.59849C18.5617 8.21624 18.6759 8.88388 18.6759 9.60227H18.8759ZM18.5217 7.52935C18.284 6.88406 17.9164 6.35955 17.4181 5.95899L17.2928 6.11487C17.7605 6.49083 18.1078 6.98431 18.3341 7.59849L18.5217 7.52935ZM17.4181 5.95899C16.9139 5.55367 16.2749 5.35455 15.5089 5.35455V5.55455C16.2391 5.55455 16.8311 5.74368 17.2928 6.11487L17.4181 5.95899ZM15.5089 5.35455C14.7429 5.35455 14.1038 5.55367 13.5996 5.95899L13.7249 6.11487C14.1867 5.74368 14.7787 5.55455 15.5089 5.55455V5.35455ZM13.5996 5.95899C13.1014 6.35955 12.7337 6.88406 12.496 7.52935L12.6837 7.59849C12.91 6.98431 13.2573 6.49083 13.7249 6.11487L13.5996 5.95899ZM12.496 7.52935C12.2596 8.17107 12.1418 8.86233 12.1418 9.60227H12.3418C12.3418 8.88388 12.4561 8.21624 12.6837 7.59849L12.496 7.52935ZM12.1418 9.60227C12.1418 10.3422 12.2596 11.0312 12.4961 11.6683L12.6836 11.5987C12.4561 10.9859 12.3418 10.3207 12.3418 9.60227H12.1418ZM12.4961 11.6683C12.7339 12.309 13.1017 12.8288 13.6001 13.2246L13.7245 13.068C13.257 12.6967 12.9098 12.208 12.6836 11.5987L12.4961 11.6683ZM13.6001 13.2246C14.1043 13.625 14.7432 13.8216 15.5089 13.8216V13.6216C14.7784 13.6216 14.1862 13.4347 13.7245 13.068L13.6001 13.2246ZM24.8004 14.5028L24.7457 14.5865L24.7457 14.5865L24.8004 14.5028ZM23.1101 6.66903L23.0201 6.62552L23.0199 6.62573L23.1101 6.66903ZM24.8288 4.6733L24.8834 4.75708L24.8836 4.75699L24.8288 4.6733ZM31.0007 5.56818L31.08 5.50725L31.08 5.50725L31.0007 5.56818ZM31.7322 7.35795V7.45795H31.8471L31.8313 7.3442L31.7322 7.35795ZM30.0561 7.35795L29.9593 7.38286L29.9786 7.45795H30.0561V7.35795ZM29.2038 6.03693L29.1373 6.11159L29.1382 6.11234L29.2038 6.03693ZM25.7237 5.96591L25.7805 6.04824L25.7806 6.04813L25.7237 5.96591ZM24.5803 7.39347L24.4889 7.35272L24.4888 7.35305L24.5803 7.39347ZM24.5732 11.7472L24.4811 11.7862L24.4813 11.7868L24.5732 11.7472ZM25.7095 13.2031L25.6517 13.2847L25.6521 13.285L25.7095 13.2031ZM28.6286 13.4943L28.5893 13.4023L28.5893 13.4023L28.6286 13.4943ZM29.5305 12.8409L29.6061 12.9064L29.6061 12.9064L29.5305 12.8409ZM30.0561 11.8182V11.7182H29.9789L29.9594 11.7928L30.0561 11.8182ZM31.7322 11.8182L31.8312 11.8327L31.848 11.7182H31.7322V11.8182ZM31.0291 13.5582L30.9481 13.4996L30.9481 13.4997L31.0291 13.5582ZM29.5589 14.7798L29.6031 14.8696L29.6034 14.8694L29.5589 14.7798ZM27.4425 15.1273C26.436 15.1273 25.5751 14.8899 24.8552 14.4191L24.7457 14.5865C25.5031 15.0817 26.4035 15.3273 27.4425 15.3273V15.1273ZM24.8552 14.4191C24.133 13.947 23.5768 13.2964 23.1864 12.4646L23.0054 12.5496C23.4105 13.4128 23.9906 14.0928 24.7457 14.5865L24.8552 14.4191ZM23.1864 12.4646C22.7959 11.6324 22.5993 10.679 22.5993 9.60227H22.3993C22.3993 10.7036 22.6004 11.6868 23.0054 12.5496L23.1864 12.4646ZM22.5993 9.60227C22.5993 8.50666 22.8006 7.54416 23.2002 6.71234L23.0199 6.62573C22.6052 7.48898 22.3993 8.48198 22.3993 9.60227H22.5993ZM23.2001 6.71255C23.6048 5.87531 24.166 5.22455 24.8834 4.75708L24.7742 4.58951C24.0239 5.07848 23.4392 5.75822 23.0201 6.62552L23.2001 6.71255ZM24.8836 4.75699C25.6041 4.28588 26.4463 4.04886 27.4141 4.04886V3.84886C26.4121 3.84886 25.5309 4.0948 24.7741 4.5896L24.8836 4.75699ZM27.4141 4.04886C28.1685 4.04886 28.8453 4.18852 29.446 4.4658L29.5298 4.2842C28.8995 3.9933 28.1937 3.84886 27.4141 3.84886V4.04886ZM29.446 4.4658C30.0476 4.74346 30.5388 5.13125 30.9214 5.62912L31.08 5.50725C30.6766 4.98239 30.1593 4.57472 29.5298 4.2842L29.446 4.4658ZM30.9214 5.62912C31.3031 6.12581 31.5407 6.70587 31.6332 7.37171L31.8313 7.3442C31.7344 6.6464 31.4843 6.03328 31.08 5.50725L30.9214 5.62912ZM31.7322 7.25795H30.0561V7.45795H31.7322V7.25795ZM30.153 7.33305C30.0194 6.81367 29.7229 6.35645 29.2695 5.96152L29.1382 6.11234C29.5654 6.48446 29.8371 6.90792 29.9593 7.38286L30.153 7.33305ZM29.2704 5.96228C28.812 5.55371 28.1989 5.35455 27.4425 5.35455V5.55455C28.1633 5.55455 28.7245 5.74364 29.1373 6.11158L29.2704 5.96228ZM27.4425 5.35455C26.7707 5.35455 26.1775 5.53015 25.6668 5.88369L25.7806 6.04813C26.2548 5.71985 26.8075 5.55455 27.4425 5.55455V5.35455ZM25.667 5.88357C25.1622 6.23155 24.77 6.72278 24.4889 7.35272L24.6716 7.43421C24.9398 6.83309 25.3099 6.37261 25.7805 6.04824L25.667 5.88357ZM24.4888 7.35305C24.2121 7.97919 24.0754 8.71084 24.0754 9.54545H24.2754C24.2754 8.73234 24.4086 8.02934 24.6717 7.43388L24.4888 7.35305ZM24.0754 9.54545C24.0754 10.3985 24.2096 11.1463 24.4811 11.7862L24.6652 11.7081C24.4064 11.0981 24.2754 10.378 24.2754 9.54545H24.0754ZM24.4813 11.7868C24.7575 12.4262 25.1471 12.9271 25.6517 13.2847L25.7673 13.1215C25.2966 12.7879 24.9286 12.3181 24.665 11.7075L24.4813 11.7868ZM25.6521 13.285C26.163 13.6436 26.7612 13.8216 27.4425 13.8216V13.6216C26.798 13.6216 26.2409 13.4539 25.767 13.1213L25.6521 13.285ZM27.4425 13.8216C27.8898 13.8216 28.2988 13.7437 28.6678 13.5863L28.5893 13.4023C28.2481 13.5479 27.8663 13.6216 27.4425 13.6216V13.8216ZM28.6678 13.5863C29.0365 13.429 29.3497 13.2023 29.6061 12.9064L29.455 12.7754C29.219 13.0477 28.9308 13.2566 28.5893 13.4023L28.6678 13.5863ZM29.6061 12.9064C29.8633 12.6097 30.0452 12.2547 30.1528 11.8435L29.9594 11.7928C29.8587 12.1772 29.6902 12.504 29.455 12.7754L29.6061 12.9064ZM30.0561 11.9182H31.7322V11.7182H30.0561V11.9182ZM31.6333 11.8036C31.5409 12.432 31.3125 12.9968 30.9481 13.4996L31.1101 13.6169C31.4938 13.0875 31.7342 12.4923 31.8312 11.8327L31.6333 11.8036ZM30.9481 13.4997C30.589 13.9968 30.112 14.3938 29.5145 14.6902L29.6034 14.8694C30.2275 14.5598 30.7306 14.1424 31.1102 13.6168L30.9481 13.4997ZM29.5148 14.6901C28.9249 14.9805 28.235 15.1273 27.4425 15.1273V15.3273C28.2598 15.3273 28.9809 15.1758 29.6031 14.8696L29.5148 14.6901ZM35.5107 14.8651L35.4681 14.9555L35.4687 14.9558L35.5107 14.8651ZM34.1683 13.7216L34.0849 13.7767L34.0851 13.7771L34.1683 13.7216ZM34.0405 10.3835L34.1249 10.4371L34.1252 10.4366L34.0405 10.3835ZM36.3913 8.96307L36.4127 9.06075L36.4134 9.0606L36.3913 8.96307ZM37.9041 8.69318L37.8914 8.594L37.8911 8.59403L37.9041 8.69318ZM39.5163 8.50142L39.5266 8.60089L39.5276 8.60078L39.5163 8.50142ZM40.4254 8.26705L40.3765 8.17983L40.3756 8.18035L40.4254 8.26705ZM40.1413 6.00852L40.0698 6.07836L40.0702 6.0788L40.1413 6.00852ZM36.5334 5.9517L36.5944 6.03091L36.5944 6.03091L36.5334 5.9517ZM35.5746 7.07386L35.5409 7.16804L35.6269 7.19872L35.6653 7.11597L35.5746 7.07386ZM33.9837 6.50568L33.8918 6.46629L33.8498 6.56407L33.95 6.59986L33.9837 6.50568ZM35.12 4.95739L35.1815 5.03624L35.1816 5.03615L35.12 4.95739ZM36.6825 4.17614L36.7077 4.27291L36.7083 4.27276L36.6825 4.17614ZM39.5661 4.0767L39.5476 4.175L39.5488 4.1752L39.5661 4.0767ZM40.8942 4.58097L40.8427 4.66672L40.8431 4.66696L40.8942 4.58097ZM41.9666 5.73864L41.879 5.78686L41.879 5.78686L41.9666 5.73864ZM42.3928 15V15.1H42.4928V15H42.3928ZM40.7166 15H40.6166V15.1H40.7166V15ZM40.7166 13.5227H40.8166V13.4227H40.7166V13.5227ZM40.6314 13.5227V13.4227H40.5685L40.5412 13.4795L40.6314 13.5227ZM40.0632 14.2827L40.1345 14.3528L40.1345 14.3528L40.0632 14.2827ZM39.005 14.9716L38.9655 14.8797L38.9655 14.8797L39.005 14.9716ZM39.3246 13.3594L39.2752 13.2724L39.2749 13.2726L39.3246 13.3594ZM40.3615 12.3509L40.2748 12.301L40.2744 12.3018L40.3615 12.3509ZM40.7166 9.51705H40.8166V9.24084L40.6398 9.45303L40.7166 9.51705ZM40.2479 9.75142L40.2748 9.84772L40.2761 9.84736L40.2479 9.75142ZM39.424 9.92898L39.4392 10.0278L39.4404 10.0276L39.424 9.92898ZM38.522 10.0568L38.5334 10.1562L38.5348 10.156L38.522 10.0568ZM37.8189 10.142L37.8318 10.2412L37.8319 10.2412L37.8189 10.142ZM36.5973 10.419L36.6286 10.514L36.6293 10.5138L36.5973 10.419ZM35.6882 10.9801L35.6148 10.9122L35.6147 10.9123L35.6882 10.9801ZM35.9936 13.3097L35.9367 13.3919L35.9377 13.3926L35.9936 13.3097ZM37.3928 15.1557C36.7143 15.1557 36.1015 15.028 35.5526 14.7743L35.4687 14.9558C36.0467 15.223 36.6886 15.3557 37.3928 15.3557V15.1557ZM35.5532 14.7746C35.0055 14.5168 34.5724 14.1475 34.2515 13.6661L34.0851 13.7771C34.4271 14.29 34.8889 14.683 35.4681 14.9555L35.5532 14.7746ZM34.2518 13.6665C33.933 13.1837 33.7712 12.5977 33.7712 11.9034H33.5712C33.5712 12.6296 33.7408 13.2557 34.0849 13.7767L34.2518 13.6665ZM33.7712 11.9034C33.7712 11.2908 33.8919 10.8045 34.1249 10.4371L33.956 10.33C33.6966 10.739 33.5712 11.266 33.5712 11.9034H33.7712ZM34.1252 10.4366C34.3622 10.0584 34.6784 9.76261 35.0752 9.54821L34.9802 9.37224C34.5532 9.60292 34.2112 9.92264 33.9557 10.3304L34.1252 10.4366ZM35.0752 9.54821C35.4783 9.33048 35.9239 9.16783 36.4127 9.06075L36.3699 8.86538C35.8644 8.97611 35.401 9.1449 34.9802 9.37224L35.0752 9.54821ZM36.4134 9.0606C36.9123 8.94764 37.4135 8.85822 37.9171 8.79234L37.8911 8.59403C37.3814 8.66072 36.8741 8.75122 36.3693 8.86554L36.4134 9.0606ZM37.9169 8.79237C38.5794 8.70719 39.1159 8.64338 39.5266 8.60089L39.506 8.40195C39.093 8.44468 38.5546 8.50872 37.8914 8.594L37.9169 8.79237ZM39.5276 8.60078C39.9477 8.55305 40.2676 8.47318 40.4753 8.35374L40.3756 8.18035C40.2045 8.27872 39.9183 8.3551 39.505 8.40206L39.5276 8.60078ZM40.4744 8.35426C40.7072 8.22362 40.8166 7.99583 40.8166 7.69886H40.6166C40.6166 7.94167 40.5319 8.09267 40.3765 8.17983L40.4744 8.35426ZM40.8166 7.69886V7.64205H40.6166V7.69886H40.8166ZM40.8166 7.64205C40.8166 6.92279 40.6193 6.35013 40.2125 5.93825L40.0702 6.0788C40.4304 6.44343 40.6166 6.95979 40.6166 7.64205H40.8166ZM40.2129 5.93869C39.8085 5.52421 39.2027 5.32614 38.4155 5.32614V5.52614C39.1719 5.52614 39.7166 5.71632 40.0698 6.07835L40.2129 5.93869ZM38.4155 5.32614C37.6017 5.32614 36.9501 5.50422 36.4723 5.8725L36.5944 6.03091C37.0257 5.69843 37.6288 5.52614 38.4155 5.52614V5.32614ZM36.4723 5.8725C36.0089 6.22976 35.6771 6.61566 35.4839 7.03175L35.6653 7.11597C35.8414 6.73661 36.1488 6.3744 36.5944 6.03091L36.4723 5.8725ZM35.6082 6.97969L34.0173 6.41151L33.95 6.59986L35.5409 7.16804L35.6082 6.97969ZM34.0756 6.54507C34.3544 5.89459 34.7238 5.39328 35.1815 5.03624L35.0585 4.87854C34.5693 5.26013 34.1812 5.79101 33.8918 6.46629L34.0756 6.54507ZM35.1816 5.03615C35.6496 4.67016 36.1581 4.41609 36.7077 4.27291L36.6573 4.07937C36.0801 4.22974 35.5469 4.49651 35.0584 4.87862L35.1816 5.03615ZM36.7083 4.27276C37.2687 4.12333 37.8187 4.04886 38.3587 4.04886V3.84886C37.8001 3.84886 37.2328 3.92591 36.6568 4.07951L36.7083 4.27276ZM38.3587 4.04886C38.7013 4.04886 39.0974 4.09057 39.5476 4.17499L39.5845 3.97842C39.1257 3.89239 38.7168 3.84886 38.3587 3.84886V4.04886ZM39.5488 4.1752C39.9952 4.25344 40.4264 4.41692 40.8427 4.66671L40.9456 4.49522C40.5097 4.23364 40.0555 4.06095 39.5833 3.97821L39.5488 4.1752ZM40.8431 4.66696C41.2562 4.91205 41.602 5.28362 41.879 5.78686L42.0542 5.69041C41.7631 5.16146 41.3939 4.76124 40.9452 4.49497L40.8431 4.66696ZM41.879 5.78686C42.152 6.28285 42.2928 6.95551 42.2928 7.8125H42.4928C42.4928 6.93654 42.3494 6.22662 42.0542 5.69041L41.879 5.78686ZM42.2928 7.8125V15H42.4928V7.8125H42.2928ZM42.3928 14.9H40.7166V15.1H42.3928V14.9ZM40.8166 15V13.5227H40.6166V15H40.8166ZM40.7166 13.4227H40.6314V13.6227H40.7166V13.4227ZM40.5412 13.4795C40.434 13.703 40.2524 13.9474 39.9919 14.2126L40.1345 14.3528C40.4043 14.0782 40.6016 13.816 40.7215 13.566L40.5412 13.4795ZM39.9919 14.2126C39.7379 14.4711 39.3969 14.6941 38.9655 14.8797L39.0445 15.0635C39.4937 14.8702 39.8582 14.634 40.1345 14.3528L39.9919 14.2126ZM38.9655 14.8797C38.5409 15.0623 38.0178 15.1557 37.3928 15.1557V15.3557C38.0366 15.3557 38.5883 15.2597 39.0445 15.0635L38.9655 14.8797ZM37.6484 13.85C38.3242 13.85 38.9011 13.7172 39.3743 13.4461L39.2749 13.2726C38.839 13.5223 38.2984 13.65 37.6484 13.65V13.85ZM39.3739 13.4464C39.8471 13.1781 40.2067 12.8295 40.4486 12.3999L40.2744 12.3018C40.0523 12.6961 39.7206 13.0199 39.2753 13.2724L39.3739 13.4464ZM40.4482 12.4007C40.6933 11.9743 40.8166 11.524 40.8166 11.0511H40.6166C40.6166 11.4874 40.5032 11.9035 40.2748 12.301L40.4482 12.4007ZM40.8166 11.0511V9.51705H40.6166V11.0511H40.8166ZM40.6398 9.45303C40.6167 9.48071 40.5735 9.51407 40.5014 9.55012C40.4304 9.58565 40.337 9.62098 40.2197 9.65548L40.2761 9.84736C40.4003 9.81084 40.5057 9.77159 40.5909 9.729C40.675 9.68693 40.7455 9.63861 40.7934 9.58106L40.6398 9.45303ZM40.2209 9.65512C39.9884 9.72021 39.7175 9.77869 39.4076 9.83034L39.4404 10.0276C39.7555 9.9751 40.0338 9.9152 40.2748 9.84772L40.2209 9.65512ZM39.4088 9.83014C39.1018 9.87737 38.8019 9.91987 38.5092 9.95764L38.5348 10.156C38.8292 10.118 39.1307 10.0753 39.4392 10.0278L39.4088 9.83014ZM38.5106 9.95747C38.2215 9.99064 37.9865 10.0191 37.8058 10.0429L37.8319 10.2412C38.0111 10.2176 38.2449 10.1893 38.5334 10.1562L38.5106 9.95747ZM37.806 10.0429C37.3645 10.1005 36.9509 10.1942 36.5653 10.3243L36.6293 10.5138C37.0013 10.3882 37.4021 10.2973 37.8318 10.2412L37.806 10.0429ZM36.566 10.324C36.1783 10.4516 35.86 10.647 35.6148 10.9122L35.7616 11.048C35.9805 10.8113 36.2682 10.6326 36.6286 10.514L36.566 10.324ZM35.6147 10.9123C35.3661 11.1816 35.2473 11.5444 35.2473 11.9886H35.4473C35.4473 11.5805 35.5557 11.2711 35.7617 11.0479L35.6147 10.9123ZM35.2473 11.9886C35.2473 12.5996 35.4755 13.0726 35.9367 13.3919L36.0505 13.2274C35.65 12.9501 35.4473 12.5425 35.4473 11.9886H35.2473ZM35.9377 13.3926C36.3938 13.6999 36.9663 13.85 37.6484 13.85V13.65C36.9954 13.65 36.4646 13.5065 36.0495 13.2267L35.9377 13.3926ZM50.1964 4.09091H50.2964V3.99091H50.1964V4.09091ZM50.1964 5.51136V5.61136H50.2964V5.51136H50.1964ZM44.543 5.51136H44.443V5.61136H44.543V5.51136ZM44.543 4.09091V3.99091H44.443V4.09091H44.543ZM46.1907 1.47727V1.37727H46.0907V1.47727H46.1907ZM47.8668 1.47727H47.9668V1.37727H47.8668V1.47727ZM48.0728 12.9403L47.9863 12.9905L47.9875 12.9926L48.0728 12.9403ZM48.6126 13.4091L48.5779 13.5029L48.5803 13.5038L48.6126 13.4091ZM49.7702 13.4943L49.7861 13.5931L49.7899 13.5924L49.7702 13.4943ZM50.0543 13.4375L50.1519 13.4154L50.1303 13.3203L50.0347 13.3394L50.0543 13.4375ZM50.3952 14.9432L50.4304 15.0368L50.512 15.0062L50.4928 14.9211L50.3952 14.9432ZM49.9194 15.071L49.8989 14.9731L49.8967 14.9736L49.9194 15.071ZM47.7532 14.8366L47.712 14.9278L47.7123 14.9279L47.7532 14.8366ZM46.631 13.9062L46.5493 13.9638L46.5497 13.9645L46.631 13.9062ZM50.0964 4.09091V5.51136H50.2964V4.09091H50.0964ZM50.1964 5.41136H44.543V5.61136H50.1964V5.41136ZM44.643 5.51136V4.09091H44.443V5.51136H44.643ZM44.543 4.19091H50.1964V3.99091H44.543V4.19091ZM46.1907 1.57727H47.8668V1.37727H46.1907V1.57727ZM47.7668 1.47727V11.875H47.9668V1.47727H47.7668ZM47.7668 11.875C47.7668 12.3549 47.8358 12.7311 47.9863 12.9905L48.1593 12.8902C48.0351 12.6761 47.9668 12.3421 47.9668 11.875H47.7668ZM47.9875 12.9926C48.1392 13.2403 48.3356 13.4133 48.5779 13.5029L48.6472 13.3153C48.454 13.2439 48.2905 13.1044 48.1581 12.8881L47.9875 12.9926ZM48.5803 13.5038C48.8137 13.5832 49.059 13.6227 49.3157 13.6227V13.4227C49.0799 13.4227 48.8565 13.3865 48.6448 13.3144L48.5803 13.5038ZM49.3157 13.6227C49.5031 13.6227 49.6604 13.6132 49.786 13.5931L49.7544 13.3956C49.6433 13.4134 49.4976 13.4227 49.3157 13.4227V13.6227ZM49.7899 13.5924C49.9082 13.5687 50.0029 13.5498 50.0739 13.5356L50.0347 13.3394C49.9637 13.3536 49.869 13.3726 49.7506 13.3963L49.7899 13.5924ZM49.9568 13.4596L50.2977 14.9653L50.4928 14.9211L50.1519 13.4154L49.9568 13.4596ZM50.3601 14.8495C50.2534 14.8896 50.1005 14.9309 49.8989 14.9731L49.9399 15.1689C50.1455 15.1259 50.3098 15.082 50.4304 15.0368L50.3601 14.8495ZM49.8967 14.9736C49.7032 15.0186 49.4535 15.042 49.1452 15.042V15.242C49.462 15.242 49.7283 15.2181 49.942 15.1684L49.8967 14.9736ZM49.1452 15.042C48.6866 15.042 48.2364 14.9435 47.7941 14.7454L47.7123 14.9279C48.179 15.137 48.6569 15.242 49.1452 15.242V15.042ZM47.7944 14.7455C47.3613 14.5495 47.0008 14.251 46.7123 13.848L46.5497 13.9645C46.8579 14.3949 47.2455 14.7166 47.712 14.9277L47.7944 14.7455ZM46.7128 13.8487C46.4337 13.4526 46.2907 12.9485 46.2907 12.3295H46.0907C46.0907 12.9795 46.2412 13.5266 46.5493 13.9638L46.7128 13.8487ZM46.2907 12.3295V1.47727H46.0907V12.3295H46.2907ZM54.4542 14.5312L54.4016 14.6163L54.4022 14.6167L54.4542 14.5312ZM52.6999 12.571L52.6099 12.6145L52.6102 12.6151L52.6999 12.571ZM52.6999 6.67614L52.6098 6.63281L52.6097 6.63303L52.6999 6.67614ZM54.4187 4.6733L54.4733 4.75708L54.4734 4.75699L54.4187 4.6733ZM58.6871 4.23295L58.7195 4.13833L58.7195 4.13833L58.6871 4.23295ZM60.1999 5.15625L60.1315 5.2292L60.1319 5.22958L60.1999 5.15625ZM61.2866 6.83239L61.3798 6.79623L61.3798 6.79623L61.2866 6.83239ZM61.6914 10.1136V10.2136H61.7914V10.1136H61.6914ZM53.2823 10.1136H53.1823V10.2136H53.2823V10.1136ZM53.2823 8.66477V8.56477H53.1823V8.66477H53.2823ZM59.9869 8.66477V8.76477H60.0869V8.66477H59.9869ZM59.6175 7.01705L59.5281 7.06177L59.5285 7.06246L59.6175 7.01705ZM58.5806 5.87358L58.5274 5.95828L58.5279 5.95853L58.5806 5.87358ZM55.271 5.9517L55.327 6.03453L55.3272 6.03441L55.271 5.9517ZM54.1559 7.23011L54.0663 7.18571L54.0663 7.18571L54.1559 7.23011ZM54.1914 11.9815L54.1018 12.026L54.1023 12.0268L54.1914 11.9815ZM55.3917 13.2812L55.3413 13.3676L55.3419 13.368L55.3917 13.2812ZM58.3675 13.5369L58.4003 13.6314L58.401 13.6312L58.3675 13.5369ZM59.2979 12.9688L59.3673 13.0408L59.368 13.0401L59.2979 12.9688ZM59.9016 12.017L59.9287 11.9208L59.8402 11.8959L59.808 11.9819L59.9016 12.017ZM61.521 12.4716L61.6165 12.5012L61.6469 12.4031L61.548 12.3753L61.521 12.4716ZM60.6616 13.9205L60.7331 13.9903L60.7335 13.9899L60.6616 13.9205ZM59.1701 14.8864L59.2059 14.9797L59.2066 14.9795L59.1701 14.8864ZM57.1744 15.1273C56.1383 15.1273 55.2502 14.8987 54.5062 14.4458L54.4022 14.6167C55.1828 15.0918 56.1082 15.3273 57.1744 15.3273V15.1273ZM54.5068 14.4462C53.766 13.9878 53.1937 13.349 52.7897 12.5269L52.6102 12.6151C53.03 13.4692 53.6272 14.1372 54.4016 14.6163L54.5068 14.4462ZM52.79 12.5275C52.3905 11.7007 52.1891 10.7359 52.1891 9.63068H51.9891C51.9891 10.7603 52.195 11.7558 52.6099 12.6145L52.79 12.5275ZM52.1891 9.63068C52.1891 8.52547 52.3905 7.55581 52.7902 6.71925L52.6097 6.63303C52.195 7.50101 51.9891 8.50104 51.9891 9.63068H52.1891ZM52.7901 6.71946C53.1948 5.87747 53.756 5.22446 54.4733 4.75708L54.3641 4.58951C53.6136 5.07857 53.029 5.76078 52.6098 6.63281L52.7901 6.71946ZM54.4734 4.75699C55.1939 4.28588 56.0362 4.04886 57.0039 4.04886V3.84886C56.002 3.84886 55.1207 4.0948 54.364 4.5896L54.4734 4.75699ZM57.0039 4.04886C57.5607 4.04886 58.1109 4.14163 58.6548 4.32758L58.7195 4.13833C58.1554 3.94549 57.5834 3.84886 57.0039 3.84886V4.04886ZM58.6548 4.32758C59.1945 4.51209 59.6867 4.81213 60.1315 5.2292L60.2683 5.0833C59.8041 4.6481 59.2877 4.3326 58.7195 4.13833L58.6548 4.32758ZM60.1319 5.22958C60.5733 5.63877 60.9278 6.18381 61.1933 6.86854L61.3798 6.79623C61.1055 6.08892 60.7356 5.51653 60.2679 5.08292L60.1319 5.22958ZM61.1933 6.86854C61.4575 7.54967 61.5914 8.39358 61.5914 9.40341H61.7914C61.7914 8.37725 61.6555 7.50714 61.3798 6.79623L61.1933 6.86854ZM61.5914 9.40341V10.1136H61.7914V9.40341H61.5914ZM61.6914 10.0136H53.2823V10.2136H61.6914V10.0136ZM53.3823 10.1136V8.66477H53.1823V10.1136H53.3823ZM53.2823 8.76477H59.9869V8.56477H53.2823V8.76477ZM60.0869 8.66477C60.0869 8.03561 59.9609 7.47045 59.7066 6.97163L59.5285 7.06246C59.7666 7.52955 59.8869 8.06288 59.8869 8.66477H60.0869ZM59.707 6.97232C59.4574 6.47317 59.0992 6.07795 58.6334 5.78863L58.5279 5.95853C58.9616 6.22793 59.2947 6.59501 59.5281 7.06177L59.707 6.97232ZM58.6338 5.78888C58.1704 5.49807 57.6258 5.35455 57.0039 5.35455V5.55455C57.5941 5.55455 58.1006 5.69038 58.5274 5.95828L58.6338 5.78888ZM57.0039 5.35455C56.319 5.35455 55.7211 5.52484 55.2147 5.869L55.3272 6.03441C55.7961 5.71569 56.3536 5.55455 57.0039 5.55455V5.35455ZM55.2149 5.86888C54.7176 6.20533 54.3343 6.64475 54.0663 7.18571L54.2455 7.27451C54.4983 6.76434 54.8584 6.35149 55.327 6.03453L55.2149 5.86888ZM54.0663 7.18571C53.7989 7.72544 53.6653 8.30413 53.6653 8.92045H53.8653C53.8653 8.33413 53.9921 7.78592 54.2455 7.27451L54.0663 7.18571ZM53.6653 8.92045V9.88636H53.8653V8.92045H53.6653ZM53.6653 9.88636C53.6653 10.7213 53.8092 11.4358 54.1018 12.026L54.281 11.9371C54.0054 11.3814 53.8653 10.6991 53.8653 9.88636H53.6653ZM54.1023 12.0268C54.3991 12.6108 54.8121 13.0589 55.3413 13.3676L55.4421 13.1949C54.9486 12.907 54.5614 12.4886 54.2805 11.9362L54.1023 12.0268ZM55.3419 13.368C55.8705 13.6715 56.4824 13.8216 57.1744 13.8216V13.6216C56.5121 13.6216 55.9356 13.4782 55.4415 13.1945L55.3419 13.368ZM57.1744 13.8216C57.624 13.8216 58.033 13.7587 58.4003 13.6314L58.3348 13.4424C57.9918 13.5613 57.6054 13.6216 57.1744 13.6216V13.8216ZM58.401 13.6312C58.7735 13.4988 59.0961 13.3021 59.3673 13.0408L59.2286 12.8967C58.979 13.1373 58.6813 13.3194 58.3341 13.4427L58.401 13.6312ZM59.368 13.0401C59.6399 12.7731 59.8487 12.4431 59.9953 12.0522L59.808 11.9819C59.6705 12.3486 59.4768 12.653 59.2279 12.8974L59.368 13.0401ZM59.8746 12.1133L61.4939 12.5679L61.548 12.3753L59.9287 11.9208L59.8746 12.1133ZM61.4254 12.442C61.2597 12.9761 60.9813 13.4455 60.5897 13.851L60.7335 13.9899C61.1467 13.5621 61.4413 13.0655 61.6165 12.5012L61.4254 12.442ZM60.59 13.8506C60.1985 14.2514 59.7136 14.5659 59.1336 14.7933L59.2066 14.9795C59.8103 14.7428 60.3198 14.4134 60.7331 13.9903L60.59 13.8506ZM59.1343 14.793C58.5556 15.0152 57.9027 15.1273 57.1744 15.1273V15.3273C57.9233 15.3273 58.6009 15.212 59.2059 14.9797L59.1343 14.793Z" fill="black"/>
</svg>
