<svg width="62" height="16" viewBox="0 0 62 16" fill="none" xmlns="http://www.w3.org/2000/svg">
<path d="M0.0543325 15V0.454545H1.8157V13.4375H8.57706V15H0.0543325ZM15.5089 15.2273C14.524 15.2273 13.6599 14.9929 12.9165 14.5241C12.1779 14.0554 11.6003 13.3996 11.1836 12.5568C10.7717 11.714 10.5657 10.7292 10.5657 9.60227C10.5657 8.46591 10.7717 7.47396 11.1836 6.62642C11.6003 5.77888 12.1779 5.12074 12.9165 4.65199C13.6599 4.18324 14.524 3.94886 15.5089 3.94886C16.4937 3.94886 17.3555 4.18324 18.0941 4.65199C18.8375 5.12074 19.4151 5.77888 19.8271 6.62642C20.2437 7.47396 20.4521 8.46591 20.4521 9.60227C20.4521 10.7292 20.2437 11.714 19.8271 12.5568C19.4151 13.3996 18.8375 14.0554 18.0941 14.5241C17.3555 14.9929 16.4937 15.2273 15.5089 15.2273ZM15.5089 13.7216C16.257 13.7216 16.8725 13.5298 17.3555 13.1463C17.8384 12.7628 18.1959 12.2585 18.4279 11.6335C18.6599 11.0085 18.7759 10.3314 18.7759 9.60227C18.7759 8.87311 18.6599 8.19366 18.4279 7.56392C18.1959 6.93419 17.8384 6.42519 17.3555 6.03693C16.8725 5.64867 16.257 5.45455 15.5089 5.45455C14.7608 5.45455 14.1452 5.64867 13.6623 6.03693C13.1793 6.42519 12.8219 6.93419 12.5898 7.56392C12.3578 8.19366 12.2418 8.87311 12.2418 9.60227C12.2418 10.3314 12.3578 11.0085 12.5898 11.6335C12.8219 12.2585 13.1793 12.7628 13.6623 13.1463C14.1452 13.5298 14.7608 13.7216 15.5089 13.7216ZM27.4425 15.2273C26.4197 15.2273 25.5391 14.9858 24.8004 14.5028C24.0618 14.0199 23.4936 13.3546 23.0959 12.5071C22.6982 11.6596 22.4993 10.6913 22.4993 9.60227C22.4993 8.49432 22.7029 7.51657 23.1101 6.66903C23.522 5.81676 24.0949 5.15152 24.8288 4.6733C25.5675 4.19034 26.4292 3.94886 27.4141 3.94886C28.1811 3.94886 28.8724 4.09091 29.4879 4.375C30.1035 4.65909 30.6077 5.05682 31.0007 5.56818C31.3937 6.07955 31.6375 6.67614 31.7322 7.35795H30.0561C29.9283 6.8608 29.6442 6.42045 29.2038 6.03693C28.7682 5.64867 28.1811 5.45455 27.4425 5.45455C26.7891 5.45455 26.2161 5.625 25.7237 5.96591C25.236 6.30208 24.8549 6.77794 24.5803 7.39347C24.3104 8.00426 24.1754 8.72159 24.1754 9.54545C24.1754 10.3883 24.308 11.1222 24.5732 11.7472C24.843 12.3722 25.2218 12.8575 25.7095 13.2031C26.2019 13.5488 26.7796 13.7216 27.4425 13.7216C27.8781 13.7216 28.2734 13.6458 28.6286 13.4943C28.9837 13.3428 29.2843 13.125 29.5305 12.8409C29.7768 12.5568 29.9519 12.2159 30.0561 11.8182H31.7322C31.6375 12.4621 31.4032 13.0421 31.0291 13.5582C30.6598 14.0696 30.1697 14.4768 29.5589 14.7798C28.9529 15.0781 28.2474 15.2273 27.4425 15.2273ZM37.3928 15.2557C36.7015 15.2557 36.0741 15.1255 35.5107 14.8651C34.9472 14.5999 34.4998 14.2188 34.1683 13.7216C33.8369 13.2197 33.6712 12.6136 33.6712 11.9034C33.6712 11.2784 33.7943 10.7718 34.0405 10.3835C34.2867 9.99053 34.6158 9.68276 35.0277 9.46023C35.4396 9.23769 35.8942 9.07197 36.3913 8.96307C36.8932 8.84943 37.3975 8.75947 37.9041 8.69318C38.567 8.60795 39.1044 8.54403 39.5163 8.50142C39.933 8.45407 40.236 8.37595 40.4254 8.26705C40.6196 8.15814 40.7166 7.96875 40.7166 7.69886V7.64205C40.7166 6.94129 40.5249 6.39678 40.1413 6.00852C39.7625 5.62027 39.1873 5.42614 38.4155 5.42614C37.6153 5.42614 36.9879 5.60133 36.5334 5.9517C36.0788 6.30208 35.7592 6.67614 35.5746 7.07386L33.9837 6.50568C34.2678 5.8428 34.6465 5.3267 35.12 4.95739C35.5982 4.58333 36.1191 4.32292 36.6825 4.17614C37.2507 4.02462 37.8094 3.94886 38.3587 3.94886C38.709 3.94886 39.1115 3.99148 39.5661 4.0767C40.0253 4.1572 40.468 4.32528 40.8942 4.58097C41.325 4.83665 41.6825 5.22254 41.9666 5.73864C42.2507 6.25473 42.3928 6.94602 42.3928 7.8125V15H40.7166V13.5227H40.6314C40.5178 13.7595 40.3284 14.0128 40.0632 14.2827C39.7981 14.5526 39.4453 14.7822 39.005 14.9716C38.5646 15.161 38.0272 15.2557 37.3928 15.2557ZM37.6484 13.75C38.3113 13.75 38.87 13.6198 39.3246 13.3594C39.7839 13.099 40.1295 12.7628 40.3615 12.3509C40.5982 11.9389 40.7166 11.5057 40.7166 11.0511V9.51705C40.6456 9.60227 40.4893 9.6804 40.2479 9.75142C40.0111 9.81771 39.7365 9.87689 39.424 9.92898C39.1162 9.97633 38.8156 10.0189 38.522 10.0568C38.2332 10.09 37.9988 10.1184 37.8189 10.142C37.3833 10.1989 36.9761 10.2912 36.5973 10.419C36.2232 10.5421 35.9202 10.7292 35.6882 10.9801C35.4609 11.2263 35.3473 11.5625 35.3473 11.9886C35.3473 12.571 35.5627 13.0114 35.9936 13.3097C36.4292 13.6032 36.9808 13.75 37.6484 13.75ZM50.1964 4.09091V5.51136H44.543V4.09091H50.1964ZM46.1907 1.47727H47.8668V11.875C47.8668 12.3485 47.9355 12.7036 48.0728 12.9403C48.2148 13.1723 48.3948 13.3286 48.6126 13.4091C48.8351 13.4848 49.0695 13.5227 49.3157 13.5227C49.5004 13.5227 49.6519 13.5133 49.7702 13.4943C49.8886 13.4706 49.9833 13.4517 50.0543 13.4375L50.3952 14.9432C50.2816 14.9858 50.123 15.0284 49.9194 15.071C49.7158 15.1184 49.4577 15.142 49.1452 15.142C48.6718 15.142 48.2077 15.0402 47.7532 14.8366C47.3034 14.633 46.9293 14.3229 46.631 13.9062C46.3375 13.4896 46.1907 12.964 46.1907 12.3295V1.47727ZM57.1744 15.2273C56.1232 15.2273 55.2165 14.9953 54.4542 14.5312C53.6966 14.0625 53.1119 13.4091 52.6999 12.571C52.2927 11.7282 52.0891 10.7481 52.0891 9.63068C52.0891 8.51326 52.2927 7.52841 52.6999 6.67614C53.1119 5.81913 53.6848 5.15152 54.4187 4.6733C55.1573 4.19034 56.0191 3.94886 57.0039 3.94886C57.5721 3.94886 58.1332 4.04356 58.6871 4.23295C59.2411 4.42235 59.7454 4.73011 60.1999 5.15625C60.6545 5.57765 61.0167 6.13636 61.2866 6.83239C61.5565 7.52841 61.6914 8.38542 61.6914 9.40341V10.1136H53.2823V8.66477H59.9869C59.9869 8.04924 59.8638 7.5 59.6175 7.01705C59.3761 6.53409 59.0304 6.15294 58.5806 5.87358C58.1355 5.59422 57.61 5.45455 57.0039 5.45455C56.3363 5.45455 55.7586 5.62026 55.271 5.9517C54.788 6.27841 54.4163 6.70455 54.1559 7.23011C53.8955 7.75568 53.7653 8.31913 53.7653 8.92045V9.88636C53.7653 10.7102 53.9073 11.4086 54.1914 11.9815C54.4802 12.5497 54.8803 12.983 55.3917 13.2812C55.9031 13.5748 56.4973 13.7216 57.1744 13.7216C57.6147 13.7216 58.0124 13.66 58.3675 13.5369C58.7274 13.4091 59.0375 13.2197 59.2979 12.9688C59.5584 12.7131 59.7596 12.3958 59.9016 12.017L61.521 12.4716C61.3505 13.0208 61.064 13.5038 60.6616 13.9205C60.2591 14.3324 59.762 14.6544 59.1701 14.8864C58.5782 15.1136 57.913 15.2273 57.1744 15.2273Z" fill="#D9D9D9"/>
</svg>
