<svg width="25" height="25" viewBox="0 0 25 25" fill="none" xmlns="http://www.w3.org/2000/svg">
<path d="M11.9929 0.0834003L7.11786 4.44197C6.99286 4.55365 6.99286 4.73233 7.11786 4.84401L11.9964 9.20258C12.1964 9.38126 12.5393 9.25363 12.5393 9.00156V0.284418C12.5357 0.0323481 12.1929 -0.095282 11.9929 0.0834003Z" fill="#D9D9D9"/>
<path d="M12.5 2.66473V6.56384C16.9964 6.56384 20.6429 9.8216 20.6429 13.8388C20.6429 17.8559 16.9964 21.1137 12.5 21.1137V25C19.4036 25 25 20.0001 25 13.8324C25 7.66465 19.4036 2.66473 12.5 2.66473Z" fill="#D9D9D9"/>
<path d="M4.35714 13.8388C4.35714 12.0806 5.05714 10.4661 6.21786 9.20897C6.45 8.9569 6.42857 8.58677 6.16786 8.35384L4.08571 6.49363C3.79286 6.23199 3.31071 6.24795 3.03929 6.52554C1.14643 8.48786 0 11.0405 0 13.8324C0 20.0001 5.59643 25 12.5 25V21.1137C8.00357 21.1137 4.35714 17.8559 4.35714 13.8388Z" fill="#D9D9D9"/>
</svg>
