<svg width="25" height="25" viewBox="0 0 25 25" fill="none" xmlns="http://www.w3.org/2000/svg">
<path d="M11.9929 0.0834003L7.11786 4.44197C6.99286 4.55365 6.99286 4.73233 7.11786 4.84401L11.9964 9.20258C12.1964 9.38126 12.5393 9.25363 12.5393 9.00156V0.284418C12.5357 0.0323481 12.1929 -0.095282 11.9929 0.0834003Z" fill="#8B7E7E"/>
<path d="M12.5 2.66473V6.56384C16.9964 6.56384 20.6429 9.8216 20.6429 13.8388C20.6429 17.8559 16.9964 21.1137 12.5 21.1137V25C19.4036 25 25 20.0001 25 13.8324C25 7.66465 19.4036 2.66473 12.5 2.66473Z" fill="#8B7E7E"/>
<path d="M4.35714 13.8387C4.35714 12.0806 5.05714 10.4661 6.21786 9.20894C6.45 8.95687 6.42857 8.58674 6.16786 8.35381L4.08571 6.4936C3.79286 6.23196 3.31071 6.24792 3.03929 6.52551C1.14643 8.48783 0 11.0404 0 13.8323C0 20.0001 5.59643 25 12.5 25V21.1136C8.00357 21.1136 4.35714 17.8559 4.35714 13.8387Z" fill="#8B7E7E"/>
</svg>
