<svg width="25" height="25" viewBox="0 0 25 25" fill="none" xmlns="http://www.w3.org/2000/svg">
<path d="M25 7.83371C25 12.1601 21.5469 15.6674 17.2872 15.6674C13.0276 15.6674 9.57446 12.1601 9.57446 7.83371C9.57446 3.50727 13.0276 0 17.2872 0C21.5469 0 25 3.50727 25 7.83371Z" fill="#6B0808"/>
<path d="M25 7.83371C25 12.1601 21.5469 15.6674 17.2872 15.6674C13.0276 15.6674 9.57446 12.1601 9.57446 7.83371C9.57446 3.50727 13.0276 0 17.2872 0C21.5469 0 25 3.50727 25 7.83371Z" stroke="#6B0808"/>
<rect width="4.21683" height="15.8131" transform="matrix(0.713562 0.700592 -0.713562 0.700592 11.2836 10.9672)" fill="#6B0808"/>
</svg>
